<svg xmlns="http://www.w3.org/2000/svg" viewBox="0 0 800 240" width="100%" height="100%">
  <defs>
    <style>
      @import url('https://fonts.googleapis.com/css2?family=JetBrains+Mono:wght@400;500;700&amp;display=swap');

      .bg { fill: #0d1117; }

      .section-header {
        font-family: 'JetBrains Mono', 'DM Mono', monospace;
        font-size: 13px;
        font-weight: 700;
        fill: #58a6ff;
        letter-spacing: 3px;
      }

      .tech-item {
        font-family: 'JetBrains Mono', 'DM Mono', monospace;
        font-size: 13px;
        fill: #e6edf3;
      }

      .box-outline {
        stroke: #30363d;
        stroke-width: 1.5;
        fill: #161b22;
        rx: 6;
      }

      .accent-dot {
        fill: #7ee787;
      }
    </style>
  </defs>

  <rect class="bg" width="800" height="240" rx="8" stroke="#30363d" stroke-width="1" />

  <!-- Main Section Title -->
  <text x="40" y="35" class="section-header">// TECHNICAL STACK &amp; CAPABILITIES</text>
  <line x1="330" y1="30" x2="760" y2="30" stroke="#30363d" stroke-width="1" stroke-dasharray="4 4" />

  <!-- COL 1: LANGUAGES -->
  <g transform="translate(40, 55)">
    <rect class="box-outline" width="165" height="155" />
    <line x1="15" y1="32" x2="150" y2="32" stroke="#58a6ff" stroke-width="1" />
    <text x="15" y="24" class="tech-item" font-weight="700" fill="#58a6ff">LANGUAGES</text>
    
    <circle cx="20" cy="50" class="accent-dot" r="2.5" />
    <text x="32" y="54" class="tech-item">TypeScript</text>

    <circle cx="20" cy="72" class="accent-dot" r="2.5" />
    <text x="32" y="76" class="tech-item">JavaScript</text>

    <circle cx="20" cy="94" class="accent-dot" r="2.5" />
    <text x="32" y="98" class="tech-item">Python</text>

    <circle cx="20" cy="116" class="accent-dot" r="2.5" />
    <text x="32" y="120" class="tech-item">HTML5 / CSS3</text>

    <circle cx="20" cy="138" class="accent-dot" r="2.5" />
    <text x="32" y="142" class="tech-item">SQL / NoSQL</text>
  </g>

  <!-- COL 2: FRONTEND & UI -->
  <g transform="translate(225, 55)">
    <rect class="box-outline" width="165" height="155" />
    <line x1="15" y1="32" x2="150" y2="32" stroke="#58a6ff" stroke-width="1" />
    <text x="15" y="24" class="tech-item" font-weight="700" fill="#58a6ff">FRONTEND</text>

    <circle cx="20" cy="50" class="accent-dot" r="2.5" />
    <text x="32" y="54" class="tech-item">React / Next.js</text>

    <circle cx="20" cy="72" class="accent-dot" r="2.5" />
    <text x="32" y="76" class="tech-item">SVG Animation</text>

    <circle cx="20" cy="94" class="accent-dot" r="2.5" />
    <text x="32" y="98" class="tech-item">Tailwind CSS</text>

    <circle cx="20" cy="116" class="accent-dot" r="2.5" />
    <text x="32" y="120" class="tech-item">DOM Architecture</text>

    <circle cx="20" cy="138" class="accent-dot" r="2.5" />
    <text x="32" y="142" class="tech-item">Responsive UI</text>
  </g>

  <!-- COL 3: BACKEND & SERVICES -->
  <g transform="translate(410, 55)">
    <rect class="box-outline" width="165" height="155" />
    <line x1="15" y1="32" x2="150" y2="32" stroke="#58a6ff" stroke-width="1" />
    <text x="15" y="24" class="tech-item" font-weight="700" fill="#58a6ff">BACKEND</text>

    <circle cx="20" cy="50" class="accent-dot" r="2.5" />
    <text x="32" y="54" class="tech-item">Node.js / Express</text>

    <circle cx="20" cy="72" class="accent-dot" r="2.5" />
    <text x="32" y="76" class="tech-item">REST / GraphQL</text>

    <circle cx="20" cy="94" class="accent-dot" r="2.5" />
    <text x="32" y="98" class="tech-item">Gmail API / OAuth</text>

    <circle cx="20" cy="116" class="accent-dot" r="2.5" />
    <text x="32" y="120" class="tech-item">PostgreSQL / Redis</text>

    <circle cx="20" cy="138" class="accent-dot" r="2.5" />
    <text x="32" y="142" class="tech-item">System Automation</text>
  </g>

  <!-- COL 4: DEVOPS & TOOLS -->
  <g transform="translate(595, 55)">
    <rect class="box-outline" width="165" height="155" />
    <line x1="15" y1="32" x2="150" y2="32" stroke="#58a6ff" stroke-width="1" />
    <text x="15" y="24" class="tech-item" font-weight="700" fill="#58a6ff">TOOLS</text>

    <circle cx="20" cy="50" class="accent-dot" r="2.5" />
    <text x="32" y="54" class="tech-item">Git / GitHub</text>

    <circle cx="20" cy="72" class="accent-dot" r="2.5" />
    <text x="32" y="76" class="tech-item">GitHub Actions</text>

    <circle cx="20" cy="94" class="accent-dot" r="2.5" />
    <text x="32" y="98" class="tech-item">VS Code / CLI</text>

    <circle cx="20" cy="116" class="accent-dot" r="2.5" />
    <text x="32" y="120" class="tech-item">Docker / Containers</text>

    <circle cx="20" cy="138" class="accent-dot" r="2.5" />
    <text x="32" y="142" class="tech-item">Linux Workflows</text>
  </g>
</svg>
