<svg xmlns="http://www.w3.org/2000/svg" viewBox="0 0 800 360" width="100%" height="100%">
  <defs>
    <style>
      @import url('https://fonts.googleapis.com/css2?family=JetBrains+Mono:wght@400;500;700&amp;display=swap');

      .bg { fill: #0d1117; }

      .section-header {
        font-family: 'JetBrains Mono', 'DM Mono', monospace;
        font-size: 13px;
        font-weight: 700;
        fill: #58a6ff;
        letter-spacing: 3px;
      }

      .project-card {
        stroke: #30363d;
        stroke-width: 1.5;
        fill: #161b22;
        rx: 6;
      }

      .card-title {
        font-family: 'JetBrains Mono', 'DM Mono', monospace;
        font-size: 15px;
        font-weight: 700;
        fill: #58a6ff;
      }

      .card-desc {
        font-family: 'JetBrains Mono', 'DM Mono', monospace;
        font-size: 12px;
        fill: #8b949e;
      }

      .tag-text {
        font-family: 'JetBrains Mono', 'DM Mono', monospace;
        font-size: 11px;
        fill: #7ee787;
      }

      .tag-box {
        stroke: #7ee787;
        stroke-width: 1;
        fill: none;
        rx: 4;
      }

      .pen-line {
        stroke: #58a6ff;
        stroke-width: 1.5;
        stroke-linecap: round;
        stroke-linejoin: round;
        fill: none;
      }

      .accent-line {
        stroke: #7ee787;
        stroke-width: 1.5;
        stroke-linecap: round;
        fill: none;
      }
    </style>
  </defs>

  <rect class="bg" width="800" height="360" rx="8" stroke="#30363d" stroke-width="1" />

  <!-- Section Header -->
  <text x="40" y="35" class="section-header">// FEATURED REPOSITORIES</text>
  <line x1="260" y1="30" x2="760" y2="30" stroke="#30363d" stroke-width="1" stroke-dasharray="4 4" />

  <!-- PROJECT 1: lagline -->
  <g transform="translate(40, 55)">
    <rect class="project-card" width="720" height="85" />
    <rect class="pen-line" x="18" y="18" width="48" height="48" rx="4" />
    <path class="accent-line" d="M 28 32 L 36 44 L 56 26" />
    
    <text x="82" y="36" class="card-title">vishvjeettanwar1623 / lagline</text>
    <text x="82" y="56" class="card-desc">High-performance latency analysis &amp; system monitoring tool built with TypeScript.</text>

    <rect class="tag-box" x="590" y="24" width="105" height="22" />
    <text x="600" y="39" class="tag-text">TypeScript</text>
  </g>

  <!-- PROJECT 2: gmailHandler -->
  <g transform="translate(40, 155)">
    <rect class="project-card" width="720" height="85" />
    <rect class="pen-line" x="18" y="18" width="48" height="48" rx="4" />
    <rect class="accent-line" x="28" y="32" width="28" height="20" rx="2" />
    <path class="accent-line" d="M 28 34 L 42 44 L 56 34" />

    <text x="82" y="36" class="card-title">vishvjeettanwar1623 / gmailHandler</text>
    <text x="82" y="56" class="card-desc">Automated email processing engine &amp; API integration service written in TypeScript.</text>

    <rect class="tag-box" x="590" y="24" width="105" height="22" />
    <text x="600" y="39" class="tag-text">TypeScript</text>
  </g>

  <!-- PROJECT 3: patchwork & friday -->
  <g transform="translate(40, 255)">
    <rect class="project-card" width="720" height="85" />
    <rect class="pen-line" x="18" y="18" width="48" height="48" rx="4" />
    <path class="accent-line" d="M 26 48 L 36 34 L 46 42 L 56 28" />

    <text x="82" y="36" class="card-title">vishvjeettanwar1623 / patchwork &amp; friday</text>
    <text x="82" y="56" class="card-desc">Developer utility tools, AI assistance scripts, and Web Development suite.</text>

    <rect class="tag-box" x="520" y="24" width="85" height="22" />
    <text x="528" y="39" class="tag-text">JavaScript</text>

    <rect class="tag-box" x="615" y="24" width="80" height="22" />
    <text x="625" y="39" class="tag-text">Python</text>
  </g>
</svg>
