<svg xmlns="http://www.w3.org/2000/svg" viewBox="0 0 800 140" width="100%" height="100%">
  <defs>
    <style>
      @import url('https://fonts.googleapis.com/css2?family=JetBrains+Mono:wght@500;700&amp;display=swap');

      .bg { fill: #0d1117; }

      .section-header {
        font-family: 'JetBrains Mono', 'DM Mono', monospace;
        font-size: 13px;
        font-weight: 700;
        fill: #58a6ff;
        letter-spacing: 3px;
      }

      .hobby-card {
        stroke: #30363d;
        stroke-width: 1.5;
        fill: #161b22;
        rx: 6;
      }

      .hobby-title {
        font-family: 'JetBrains Mono', 'DM Mono', monospace;
        font-size: 12px;
        font-weight: 700;
        fill: #e6edf3;
      }

      .hobby-sub {
        font-family: 'JetBrains Mono', 'DM Mono', monospace;
        font-size: 10px;
        fill: #7ee787;
      }

      .line-icon {
        stroke: #58a6ff;
        stroke-width: 1.5;
        stroke-linecap: round;
        stroke-linejoin: round;
        fill: none;
      }

      .accent-icon {
        stroke: #7ee787;
        stroke-width: 1.5;
        stroke-linecap: round;
        fill: none;
      }
    </style>
  </defs>

  <rect class="bg" width="800" height="140" rx="8" stroke="#30363d" stroke-width="1" />

  <!-- Section Title -->
  <text x="40" y="30" class="section-header">// BEYOND THE SCREEN &amp; INTERESTS</text>
  <line x1="330" y1="25" x2="760" y2="25" stroke="#30363d" stroke-width="1" stroke-dasharray="4 4" />

  <!-- ITEM 1: Open Source -->
  <g transform="translate(40, 48)">
    <rect class="hobby-card" width="165" height="70" />
    <circle cx="32" cy="35" r="12" class="line-icon" />
    <path d="M 32 23 L 32 35 L 40 35" class="accent-icon" />
    <text x="54" y="32" class="hobby-title">Open Source</text>
    <text x="54" y="48" class="hobby-sub">Craft &amp; Tools</text>
  </g>

  <!-- ITEM 2: Mechanical Keyboards -->
  <g transform="translate(225, 48)">
    <rect class="hobby-card" width="165" height="70" />
    <rect x="20" y="25" width="24" height="20" rx="3" class="line-icon" />
    <rect x="25" y="30" width="14" height="10" rx="1" class="accent-icon" />
    <text x="54" y="32" class="hobby-title">Custom Keys</text>
    <text x="54" y="48" class="hobby-sub">Tactile Switches</text>
  </g>

  <!-- ITEM 3: Minimalist Design -->
  <g transform="translate(410, 48)">
    <rect class="hobby-card" width="165" height="70" />
    <polygon points="32,22 44,42 20,42" class="line-icon" />
    <circle cx="32" cy="34" r="3" fill="#7ee787" />
    <text x="54" y="32" class="hobby-title">Typography</text>
    <text x="54" y="48" class="hobby-sub">Minimal Design</text>
  </g>

  <!-- ITEM 4: Coffee & Books -->
  <g transform="translate(595, 48)">
    <rect class="hobby-card" width="165" height="70" />
    <rect x="20" y="27" width="18" height="18" rx="2" class="line-icon" />
    <path d="M 38 31 C 42 31, 42 41, 38 41" class="accent-icon" />
    <path d="M 24 23 C 24 20, 26 20, 26 17" class="accent-icon" />
    <text x="54" y="32" class="hobby-title">Espresso</text>
    <text x="54" y="48" class="hobby-sub">Black Coffee</text>
  </g>
</svg>
